<svg xmlns="http://www.w3.org/2000/svg" viewBox="0 0 96 96" role="img" aria-labelledby="title">
  <title id="title">Símbolo TrilhaGov</title>
  <g fill="none" fill-rule="evenodd">
    <path fill="#0A2F5A" d="M49 8h3v10h-3z"/>
    <path fill="#D2A62B" d="M51 12h4v4h-4z"/>
    <path fill="#0A2F5A" d="M39 29a12 12 0 0 1 24 0H39Z"/>
    <path fill="#D2A62B" d="M51 17a12 12 0 0 1 12 12H51V17Z"/>
    <path stroke="#D2A62B" stroke-width="3" d="M36 32h30M39 37h24"/>
    <path fill="#0A2F5A" d="M40 36h4v10h-4zm8 0h4v10h-4zm8 0h4v10h-4z"/>
    <path fill="#D2A62B" d="m13 49 36-3-13 13z"/>
    <path fill="#D2A62B" d="m49 46 26 9-14 7z"/>
    <path fill="#0A2F5A" d="m13 49 23 10-7 7z"/>
    <path fill="#0A2F5A" d="m36 59 25 3-11 9z"/>
    <path fill="#D2A62B" d="m61 62 14-7v25L52 71z"/>
    <path fill="#0A2F5A" d="m50 71-18 17H3l26-22z"/>
    <path fill="#D2A62B" d="m36 59 14 12-18 17-3-22z"/>
    <path stroke="#F7FAFC" stroke-linejoin="round" stroke-width="2" d="m13 49 23 10 13-13m-13 13 25 3 14-7m-46 11 21 5m0 0 25 9"/>
  </g>
</svg>
